<?xml version="1.0" standalone="no"?>
<!DOCTYPE svg PUBLIC "-//W3C//DTD SVG 20010904//EN"
 "http://www.w3.org/TR/2001/REC-SVG-20010904/DTD/svg10.dtd">
<svg version="1.0" xmlns="http://www.w3.org/2000/svg"
 width="1025.000000pt" height="1025.000000pt" viewBox="0 0 1025.000000 1025.000000"
 preserveAspectRatio="xMidYMid meet">
<metadata>
Created by potrace 1.14, written by Peter Selinger 2001-2017
</metadata>
<g transform="translate(0.000000,1025.000000) scale(0.100000,-0.100000)"
fill="#000000" stroke="none">
<path d="M4798 10245 c-1 -1 -48 -6 -103 -9 -136 -9 -192 -15 -380 -41 -61 -9
-352 -65 -410 -80 -33 -9 -69 -17 -80 -19 -11 -3 -35 -9 -52 -14 -18 -6 -33
-9 -33 -6 0 3 -8 0 -18 -5 -11 -6 -30 -12 -43 -15 -13 -2 -76 -21 -139 -42
-63 -21 -117 -38 -120 -39 -14 -3 -86 -28 -95 -34 -5 -3 -14 -6 -20 -7 -40 -8
-342 -142 -500 -222 -60 -30 -125 -62 -142 -71 -18 -8 -33 -19 -33 -23 0 -4
-6 -8 -13 -8 -7 0 -29 -11 -48 -25 -20 -13 -39 -21 -43 -18 -3 4 -6 1 -6 -5 0
-7 -5 -12 -10 -12 -6 0 -16 -5 -23 -10 -7 -6 -57 -39 -112 -73 -55 -34 -109
-69 -119 -79 -11 -10 -23 -18 -28 -18 -4 0 -16 -6 -25 -14 -43 -35 -155 -116
-159 -116 -3 0 -11 -6 -18 -12 -7 -7 -30 -26 -52 -43 -71 -56 -209 -172 -242
-204 -17 -17 -32 -29 -32 -27 0 2 -69 -64 -152 -148 -138 -137 -214 -219 -288
-309 -14 -17 -34 -41 -45 -53 -11 -12 -29 -35 -40 -50 -11 -15 -25 -32 -30
-38 -34 -36 -285 -389 -285 -401 0 -2 -18 -31 -40 -64 -22 -33 -40 -65 -40
-71 0 -5 -5 -10 -12 -10 -6 0 -9 -3 -6 -6 3 -3 -10 -31 -29 -62 -53 -86 -223
-434 -217 -444 3 -4 0 -8 -5 -8 -6 0 -11 -5 -11 -11 0 -5 -8 -29 -18 -52 -32
-74 -104 -259 -108 -279 -1 -5 -3 -10 -4 -13 -1 -3 -3 -8 -4 -12 -1 -5 -12
-38 -24 -75 -13 -36 -24 -76 -25 -87 -1 -12 -5 -21 -9 -21 -4 0 -8 -7 -8 -16
0 -8 -11 -54 -24 -102 -14 -48 -27 -98 -29 -112 -3 -14 -10 -43 -15 -65 -6
-22 -14 -55 -17 -74 -3 -19 -7 -37 -9 -40 -2 -3 -7 -28 -10 -55 -4 -27 -9 -52
-11 -56 -2 -3 -6 -26 -9 -50 -3 -25 -7 -54 -10 -65 -4 -20 -11 -72 -22 -162
-3 -27 -7 -58 -9 -70 -20 -123 -27 -649 -11 -823 17 -195 28 -284 41 -350 2
-13 7 -42 10 -65 5 -33 10 -63 20 -105 2 -10 19 -95 21 -105 1 -5 3 -12 4 -15
1 -3 4 -14 6 -25 6 -39 50 -194 57 -201 4 -4 7 -18 7 -31 0 -13 7 -37 15 -53
9 -17 15 -32 15 -35 0 -7 -1 -3 25 -80 l23 -70 -4 70 c-3 39 -7 90 -9 115 -16
149 -24 630 -11 630 5 0 3 6 -3 13 -6 8 -8 16 -5 20 3 3 8 49 11 104 8 158 11
208 13 208 1 0 3 18 5 40 5 61 24 213 31 246 3 13 7 40 9 59 6 50 26 161 40
220 4 14 8 34 9 45 1 11 5 26 9 33 5 6 6 12 3 12 -2 0 0 15 5 33 5 17 12 48
15 67 3 19 10 43 15 53 5 9 7 17 5 17 -3 0 1 18 9 40 8 22 14 41 14 43 0 1 2
9 5 17 3 8 14 50 26 93 12 42 28 93 36 112 8 19 11 35 8 35 -4 0 0 7 7 17 8 9
13 17 11 17 -2 1 -1 8 2 16 9 30 47 135 53 150 3 8 7 17 8 20 4 12 20 50 50
122 18 42 30 79 27 82 -3 3 0 6 6 6 7 0 12 4 12 9 0 5 13 39 30 74 16 36 30
70 30 76 0 6 4 11 8 11 6 0 17 20 37 70 12 30 20 46 24 50 3 3 17 28 30 55 32
65 139 247 191 326 22 33 40 62 40 65 0 4 158 231 193 276 168 218 506 585
667 723 141 121 378 304 496 383 131 86 297 188 303 183 2 -1 7 2 10 7 10 15
138 81 145 75 3 -4 6 -2 6 4 0 10 52 38 200 106 175 81 212 97 217 97 3 0 56
20 117 44 91 36 326 116 386 131 166 43 302 76 330 81 19 4 40 7 45 9 33 7 91
18 104 20 9 1 27 4 41 8 14 3 43 9 65 12 22 3 51 7 65 9 26 4 127 17 170 21
14 2 25 4 25 5 0 0 25 2 56 4 31 2 62 7 69 11 9 6 11 4 5 -5 -6 -9 -4 -11 5
-5 7 5 50 9 94 11 45 2 83 4 86 4 30 9 465 -2 553 -14 15 -2 27 1 27 6 0 5 6
6 13 1 14 -9 26 -11 81 -14 23 -1 49 -6 58 -11 10 -5 19 -4 23 2 4 6 12 7 18
3 7 -4 19 -8 27 -10 17 -2 89 -12 135 -19 17 -2 44 -6 60 -9 17 -3 46 -8 65
-11 19 -3 42 -8 50 -11 8 -3 26 -7 40 -9 14 -2 57 -10 95 -19 39 -9 81 -19 95
-22 157 -33 670 -204 707 -235 7 -6 13 -7 13 -3 0 4 7 1 17 -6 9 -8 17 -12 17
-10 1 2 24 -6 51 -18 28 -12 51 -22 53 -21 1 0 25 -11 52 -25 27 -14 52 -26
55 -26 20 -2 480 -252 495 -268 6 -8 40 -29 60 -38 25 -12 261 -174 345 -237
132 -99 258 -202 323 -263 18 -18 36 -33 38 -33 3 0 20 -15 38 -32 197 -191
271 -266 331 -332 39 -43 79 -88 90 -100 36 -40 102 -120 175 -211 39 -49 77
-98 85 -108 8 -9 15 -21 15 -25 0 -10 51 -64 56 -59 3 2 -2 17 -10 33 -9 16
-23 47 -32 69 -28 68 -165 339 -180 356 -8 8 -14 18 -14 22 0 10 -93 162 -102
165 -4 2 -6 8 -2 13 3 5 0 9 -5 9 -6 0 -11 7 -11 15 0 8 -4 15 -10 15 -5 0
-10 5 -10 10 0 11 -9 24 -42 60 -9 10 -15 20 -13 22 4 3 -200 276 -214 288 -4
3 -17 19 -30 35 -104 137 -423 451 -611 604 -25 20 -50 41 -57 46 -6 6 -26 21
-44 35 -18 14 -38 31 -45 38 -7 6 -16 12 -19 12 -4 0 -25 15 -48 33 -49 39
-205 147 -213 147 -2 0 -10 5 -17 10 -24 21 -117 79 -137 85 -11 3 -20 10 -20
15 0 4 -8 10 -17 14 -10 3 -34 15 -53 27 -19 12 -73 42 -120 67 -47 24 -91 49
-97 54 -7 6 -13 7 -13 3 0 -5 -8 -1 -17 8 -10 8 -21 16 -26 16 -4 0 -20 7 -35
15 -44 22 -309 137 -327 142 -5 1 -23 7 -40 14 -16 6 -31 11 -33 11 -1 -1 -15
5 -31 13 -16 9 -31 12 -35 9 -3 -4 -6 -1 -6 5 0 7 -10 12 -23 12 -13 0 -28 5
-35 12 -7 7 -12 8 -12 4 0 -5 -7 -3 -15 4 -8 7 -15 10 -15 6 0 -3 -16 0 -35 8
-20 9 -39 16 -43 17 -4 1 -11 3 -17 5 -37 11 -164 46 -180 49 -11 2 -47 11
-80 20 -69 18 -81 21 -167 40 -48 11 -305 55 -353 61 -27 3 -61 7 -75 9 -14 2
-59 6 -100 10 -41 4 -86 9 -100 12 -28 5 -636 13 -642 8z"/>
<path d="M5177 8894 c-1 -1 -67 -5 -147 -8 -81 -4 -155 -8 -165 -10 -11 -2
-54 -7 -95 -11 -41 -4 -77 -8 -80 -10 -3 -2 -30 -6 -60 -10 -80 -11 -122 -18
-170 -30 -14 -3 -38 -8 -55 -11 -16 -3 -43 -9 -60 -14 -16 -5 -41 -12 -55 -14
-14 -3 -52 -13 -85 -22 -33 -9 -64 -17 -70 -18 -5 -1 -14 -4 -20 -7 -8 -5 -58
-21 -165 -54 -3 -1 -17 -6 -31 -12 -14 -6 -44 -17 -67 -24 -23 -7 -42 -15 -42
-19 0 -4 -6 -7 -12 -7 -15 0 -210 -83 -218 -92 -3 -3 -59 -33 -124 -66 -66
-32 -135 -70 -153 -82 -19 -13 -36 -23 -39 -23 -3 0 -25 -13 -49 -30 -24 -16
-48 -30 -54 -30 -6 0 -11 -4 -11 -10 0 -5 -7 -10 -15 -10 -8 0 -15 -4 -15 -10
0 -5 -5 -10 -10 -10 -9 0 -65 -35 -80 -50 -3 -3 -27 -21 -55 -40 -27 -19 -51
-38 -53 -42 -2 -4 -10 -8 -18 -8 -8 0 -14 -4 -14 -8 0 -4 -12 -15 -27 -24 -16
-9 -39 -27 -53 -40 -14 -13 -46 -40 -71 -60 -93 -74 -274 -251 -383 -373 -19
-22 -44 -49 -54 -60 -10 -11 -36 -42 -57 -70 -22 -27 -42 -52 -45 -55 -11 -9
-155 -214 -190 -270 -19 -30 -38 -56 -42 -58 -5 -2 -8 -8 -8 -13 0 -5 -19 -39
-41 -76 -36 -58 -172 -318 -175 -333 0 -3 -13 -32 -28 -65 -15 -33 -29 -64
-30 -70 -1 -5 -4 -14 -8 -20 -18 -29 -112 -308 -144 -425 -20 -74 -38 -142
-41 -150 -3 -8 -7 -26 -9 -38 -1 -13 -10 -54 -18 -90 -8 -37 -17 -85 -21 -107
-3 -23 -8 -52 -10 -65 -3 -14 -8 -48 -10 -76 -3 -28 -7 -60 -10 -72 -27 -143
-27 -653 0 -862 3 -19 7 -56 10 -82 5 -42 35 -210 49 -278 3 -14 8 -38 12 -55
12 -61 65 -251 74 -270 6 -11 12 -29 13 -40 2 -11 7 -28 10 -37 4 -10 10 -26
14 -35 3 -10 7 -22 9 -28 11 -37 48 -132 55 -140 5 -5 9 -14 9 -21 0 -20 112
-256 183 -384 10 -19 49 -83 85 -143 37 -59 74 -120 82 -135 8 -14 20 -31 26
-37 6 -5 19 -23 29 -40 10 -16 22 -34 26 -40 5 -5 45 -56 89 -112 44 -56 88
-112 97 -124 10 -13 86 -91 168 -174 132 -133 192 -189 261 -245 74 -60 141
-111 189 -145 31 -22 62 -46 70 -53 7 -6 18 -12 24 -12 6 0 11 -4 11 -10 0 -5
7 -10 15 -10 8 0 15 -4 15 -10 0 -5 5 -10 11 -10 6 0 30 -14 54 -30 135 -93
410 -232 623 -314 106 -41 135 -51 145 -48 4 1 7 -3 7 -10 0 -6 3 -9 6 -5 4 3
22 0 40 -8 19 -8 37 -14 39 -15 3 0 6 0 8 -1 1 0 9 -2 17 -4 44 -10 116 -30
120 -35 3 -3 14 -6 25 -7 21 -2 56 -9 83 -17 16 -5 42 -10 100 -21 15 -3 38
-8 50 -11 13 -2 43 -7 65 -10 23 -3 48 -7 55 -9 7 -3 47 -8 90 -11 42 -3 80
-8 85 -11 4 -2 101 -6 215 -8 139 -3 195 -1 172 5 -19 5 -55 11 -80 14 -25 2
-52 6 -60 9 -8 3 -40 11 -70 17 -55 10 -83 16 -130 27 -14 3 -32 6 -40 7 -8 0
-17 4 -20 8 -3 3 -19 8 -35 11 -17 2 -37 6 -45 10 -25 9 -86 27 -108 32 -11 2
-30 9 -41 15 -12 6 -21 8 -21 4 0 -3 -6 -2 -13 4 -7 6 -24 13 -39 16 -14 2
-35 9 -46 15 -11 6 -22 7 -26 4 -3 -3 -6 -1 -6 5 0 7 -6 12 -13 12 -45 0 -425
178 -577 271 -47 28 -94 57 -105 63 -11 7 -35 21 -52 32 -18 10 -33 22 -33 27
0 4 -5 7 -11 7 -23 0 -298 214 -423 330 -136 124 -274 273 -371 400 -28 35
-54 69 -58 75 -32 42 -127 175 -127 179 0 5 -43 73 -58 91 -40 49 -203 377
-262 525 -29 74 -56 144 -61 155 -4 11 -13 38 -19 60 -6 22 -14 47 -17 55 -3
8 -7 20 -9 25 -1 6 -14 54 -29 108 -14 54 -28 107 -31 118 -12 54 -14 67 -20
99 -4 19 -8 44 -10 55 -39 206 -56 398 -56 620 0 133 8 311 17 357 3 12 7 44
10 72 3 28 7 65 10 81 26 146 39 211 57 280 11 44 22 89 25 100 9 39 11 50 13
53 2 1 4 7 5 12 1 6 3 11 4 13 2 1 4 12 7 25 8 46 153 421 176 458 4 6 34 62
66 125 81 156 71 139 171 294 56 87 211 292 277 364 87 97 233 241 244 241 6
0 8 5 5 10 -3 6 -2 10 2 10 5 0 24 16 43 35 19 19 39 35 43 35 4 0 18 10 30
23 44 45 317 247 317 234 0 -3 11 4 24 16 23 21 73 50 191 113 28 15 52 30 53
35 2 5 9 9 15 9 6 0 47 18 91 39 112 54 161 76 279 122 109 43 340 114 402
124 11 2 21 4 23 5 1 2 5 3 10 4 93 23 115 27 153 30 20 2 41 6 46 9 5 3 31 8
58 11 66 8 93 13 107 22 7 5 8 3 3 -6 -5 -9 -4 -11 4 -6 7 5 31 9 54 11 23 2
42 4 42 5 0 1 38 3 85 5 47 2 85 4 85 5 0 6 195 4 212 -2 12 -4 25 -3 28 3 4
5 11 7 16 3 6 -3 49 -8 97 -10 48 -2 101 -7 117 -10 26 -4 114 -14 153 -17 6
0 12 -3 12 -6 0 -3 15 -6 33 -5 17 0 37 -2 42 -5 6 -3 21 -7 34 -9 14 -2 33
-8 44 -14 15 -8 18 -7 11 4 -6 10 -5 11 8 1 8 -7 18 -10 21 -6 4 3 13 0 22 -7
8 -7 15 -10 15 -7 0 3 17 1 38 -4 20 -5 44 -11 53 -13 32 -8 104 -28 119 -34
8 -3 18 -6 23 -7 4 -2 9 -4 12 -5 6 -3 6 -3 55 -14 19 -5 40 -11 45 -15 6 -4
28 -13 50 -20 22 -7 49 -16 60 -21 11 -4 38 -15 60 -23 22 -9 67 -28 100 -43
33 -15 62 -28 65 -29 8 -1 170 -84 230 -118 114 -62 394 -248 420 -277 3 -3
43 -36 90 -74 108 -88 345 -326 434 -436 38 -47 78 -93 89 -102 10 -10 16 -18
12 -18 -6 0 54 -83 89 -122 9 -10 16 -25 16 -33 0 -8 4 -15 8 -15 5 0 25 -28
46 -62 21 -35 51 -85 68 -113 51 -83 144 -264 187 -365 23 -52 45 -102 49
-110 5 -8 15 -36 23 -62 7 -27 16 -48 20 -48 3 0 6 -6 7 -12 1 -21 10 -57 17
-68 8 -12 56 -170 59 -190 1 -9 5 -20 8 -25 3 -6 9 -27 12 -49 4 -21 8 -41 11
-45 4 -7 10 -34 20 -86 2 -11 5 -29 8 -40 3 -11 10 -54 16 -95 7 -41 15 -82
18 -90 3 -8 6 -35 8 -60 3 -49 15 -177 21 -225 4 -39 4 -409 -1 -460 -2 -22
-6 -67 -9 -100 -3 -33 -8 -85 -12 -115 -4 -30 -8 -68 -8 -85 -1 -16 -4 -32 -8
-35 -3 -3 -8 -25 -11 -50 -6 -51 -54 -277 -64 -300 -7 -18 -10 -28 -17 -58 -3
-12 -7 -26 -10 -30 -3 -5 -7 -19 -10 -33 -2 -13 -11 -43 -19 -66 -9 -22 -13
-44 -10 -47 4 -3 1 -6 -5 -6 -7 0 -11 -3 -10 -7 5 -19 -79 -237 -133 -346 -15
-31 -29 -61 -30 -65 -2 -16 -55 -117 -61 -120 -5 -2 -8 -10 -8 -17 0 -7 -21
-49 -46 -92 -82 -137 -85 -143 -69 -136 8 3 15 9 15 13 0 5 6 15 13 22 26 27
134 164 153 193 10 17 24 35 30 40 25 23 256 410 259 435 1 3 10 23 22 45 11
22 42 90 67 150 26 61 51 119 57 130 34 74 147 463 163 560 2 17 5 30 6 30 1
0 3 9 4 20 5 31 16 98 21 124 4 22 15 107 20 161 2 14 4 25 5 25 1 0 4 43 7
95 11 173 6 630 -7 630 -4 0 -6 10 -7 23 -4 76 -8 117 -13 117 -3 0 -6 17 -7
38 -3 60 -35 233 -50 272 -3 8 -7 30 -9 49 -2 18 -8 39 -15 47 -6 8 -9 14 -6
14 3 0 1 15 -4 33 -6 17 -17 57 -25 87 -8 30 -18 64 -23 75 -5 11 -24 63 -41
115 -18 52 -39 107 -47 123 -7 15 -11 27 -8 27 3 0 -1 10 -9 23 -8 12 -15 25
-16 29 -3 26 -149 330 -162 339 -5 3 -10 12 -11 20 -2 8 -7 21 -12 29 -15 23
-28 44 -59 99 -16 28 -33 51 -38 51 -4 0 -7 3 -6 8 2 7 -21 53 -31 62 -3 3
-20 25 -36 50 -16 25 -32 47 -35 50 -3 3 -16 21 -30 40 -29 42 -23 34 -112
145 -95 119 -111 137 -263 289 -133 134 -236 227 -311 281 -15 11 -35 28 -43
38 -9 9 -21 17 -27 17 -7 0 -14 3 -16 8 -7 15 -309 222 -326 222 -4 0 -18 9
-30 20 -12 12 -22 18 -22 15 0 -3 -17 5 -37 18 -69 43 -382 197 -401 197 -4 0
-24 9 -44 19 -19 11 -39 17 -42 13 -4 -3 -10 -1 -14 6 -5 6 -17 13 -27 15 -11
2 -31 9 -45 17 -14 7 -26 13 -27 12 -7 -4 -63 12 -63 18 0 3 -6 7 -12 8 -34 3
-108 24 -108 31 0 4 -6 8 -12 8 -21 1 -69 12 -123 27 -47 14 -160 41 -215 51
-110 21 -268 45 -330 51 -41 3 -78 8 -81 10 -4 2 -76 6 -160 10 -85 3 -171 7
-192 8 -21 1 -39 1 -40 0z"/>
<path d="M5297 7253 c-1 -1 -39 -4 -84 -7 -82 -5 -171 -18 -273 -40 -55 -12
-176 -50 -184 -58 -6 -4 -17 -8 -25 -8 -15 0 -242 -107 -251 -119 -3 -3 -17
-12 -32 -20 -15 -8 -37 -22 -47 -33 -11 -10 -23 -18 -26 -18 -27 0 -345 -309
-345 -336 0 -7 -4 -14 -9 -14 -8 0 -84 -107 -117 -165 -50 -88 -104 -195 -104
-209 0 -9 -4 -16 -10 -16 -5 0 -10 -8 -10 -18 0 -10 -5 -23 -12 -30 -7 -7 -9
-12 -5 -12 4 0 1 -12 -7 -27 -14 -30 -52 -151 -67 -218 -17 -80 -19 -91 -29
-151 -22 -136 -35 -620 -18 -656 5 -10 5 -18 1 -18 -4 0 -7 -80 -5 -177 1 -98
2 -185 2 -193 -5 -313 -4 -559 3 -572 4 -10 4 -18 0 -18 -10 0 -9 -452 1 -468
4 -7 3 -12 -1 -12 -13 0 -6 -195 11 -281 25 -135 77 -265 153 -384 50 -78 174
-206 243 -251 25 -16 47 -32 50 -35 8 -11 146 -78 192 -94 57 -20 63 -19 94
10 l27 25 3 1543 c2 1328 4 1592 14 1592 1 0 4 11 7 25 7 39 11 55 13 55 1 0
3 7 5 15 5 27 48 123 78 175 87 150 204 257 367 336 35 17 69 32 75 33 5 1 15
4 20 8 15 9 124 36 180 45 58 8 286 8 330 0 17 -3 39 -8 50 -11 11 -3 36 -9
55 -14 100 -25 226 -106 304 -194 101 -114 172 -294 168 -428 -1 -44 -10 -154
-15 -180 -6 -29 -44 -132 -61 -163 -45 -84 -139 -192 -205 -237 -46 -32 -142
-80 -158 -80 -7 0 -13 -4 -13 -8 0 -5 -6 -9 -12 -10 -7 0 -26 -4 -43 -7 -16
-4 -36 -8 -42 -8 -7 0 -13 -3 -13 -6 0 -4 -12 -6 -27 -5 -16 1 -32 -1 -38 -4
-5 -3 -58 -7 -117 -8 -59 -1 -111 -5 -117 -8 -5 -3 -12 0 -14 6 -4 10 -6 10
-6 0 -1 -10 -6 -10 -21 -2 -14 8 -26 8 -40 0 -12 -7 -26 -7 -36 -2 -9 5 -33 6
-54 2 -21 -4 -44 -4 -51 1 -7 4 -20 4 -29 -1 -9 -5 -22 -5 -29 -1 -7 5 -30 5
-52 1 -21 -4 -39 -5 -39 -1 0 3 -24 5 -52 4 -82 -3 -108 -7 -108 -15 0 -4 -6
-8 -13 -8 -7 0 -21 -13 -30 -29 -16 -27 -17 -62 -17 -336 1 -263 3 -309 17
-334 30 -51 55 -54 443 -54 195 1 378 3 405 6 65 8 124 16 155 23 14 3 36 8
50 10 14 2 36 7 50 11 14 3 30 7 35 8 96 22 414 161 423 186 2 5 9 9 15 9 11
0 46 25 90 64 9 9 19 16 22 16 3 0 13 8 23 18 10 9 38 35 63 58 61 57 100 101
153 175 25 35 49 69 53 74 5 6 15 24 23 40 8 17 17 32 20 35 5 4 29 58 80 175
23 52 39 95 35 95 -3 0 0 12 6 28 6 15 12 34 14 42 2 8 11 44 20 80 9 36 17
72 17 80 0 8 5 38 10 65 29 152 11 441 -38 612 -9 29 -14 54 -13 55 1 2 -8 22
-20 46 -12 23 -19 42 -16 42 8 0 -78 168 -109 213 -14 21 -26 40 -26 43 0 3
-6 11 -12 18 -7 8 -20 24 -28 36 -47 71 -257 280 -281 280 -4 0 -12 6 -16 13
-19 30 -297 187 -332 187 -6 0 -19 4 -29 9 -33 19 -124 44 -202 57 -19 3 -37
7 -40 9 -3 2 -46 6 -95 10 -50 4 -93 9 -97 12 -5 2 -8 -1 -8 -7 0 -6 -5 -8
-12 -4 -10 7 -176 13 -181 7z"/>
<path d="M9906 6184 c3 -22 7 -55 8 -74 1 -20 6 -42 11 -49 6 -10 4 -12 -5 -6
-9 6 -11 4 -5 -5 25 -40 26 -733 1 -955 -2 -22 -7 -71 -10 -109 -4 -38 -8 -71
-10 -75 -2 -3 -7 -35 -10 -70 -4 -36 -9 -68 -12 -72 -2 -5 -5 -24 -6 -44 -1
-19 -4 -35 -7 -35 -3 0 -6 -15 -5 -32 0 -18 -2 -37 -5 -43 -7 -12 -5 -6 -15
-78 -5 -31 -12 -59 -16 -62 -5 -3 -6 -14 -3 -25 3 -12 0 -20 -6 -20 -7 0 -10
-4 -7 -8 3 -5 1 -26 -5 -47 -6 -20 -13 -46 -15 -56 -9 -43 -13 -57 -29 -119
-25 -96 -119 -387 -144 -445 -5 -11 -15 -36 -21 -55 -18 -49 -33 -84 -94 -222
-14 -32 -22 -58 -18 -58 4 0 2 -4 -3 -8 -6 -4 -44 -74 -84 -157 -41 -82 -77
-152 -81 -155 -3 -3 -11 -16 -17 -30 -23 -48 -147 -253 -189 -313 -19 -26 -34
-52 -34 -57 0 -6 -4 -10 -10 -10 -5 0 -10 -5 -10 -10 0 -6 -5 -16 -10 -23 -6
-7 -38 -50 -72 -97 -35 -47 -66 -89 -70 -95 -23 -29 -154 -192 -163 -201 -5
-7 -35 -40 -65 -75 -64 -74 -332 -344 -405 -409 -51 -46 -67 -59 -165 -141
-79 -65 -273 -208 -360 -265 -41 -27 -76 -52 -78 -56 -2 -5 -7 -8 -12 -8 -5 0
-46 -23 -92 -52 -112 -69 -177 -107 -210 -121 -16 -6 -28 -15 -28 -19 0 -4 -9
-8 -20 -8 -11 0 -20 -4 -20 -10 0 -5 -9 -10 -19 -10 -11 0 -21 -4 -23 -8 -3
-9 -134 -72 -148 -72 -6 0 -10 -4 -10 -8 0 -5 -6 -9 -12 -10 -7 0 -69 -25
-138 -55 -186 -81 -508 -195 -595 -211 -13 -2 -32 -9 -42 -14 -10 -5 -26 -8
-35 -7 -10 2 -18 -1 -18 -6 0 -6 -4 -8 -9 -5 -5 3 -27 -1 -50 -9 -23 -8 -43
-14 -46 -15 -3 0 -6 0 -7 -1 -2 -1 -14 -2 -28 -4 -14 -2 -59 -11 -100 -20 -41
-9 -90 -18 -108 -20 -18 -2 -43 -7 -55 -11 -12 -4 -33 -8 -47 -9 -14 -2 -45
-6 -70 -10 -53 -9 -87 -13 -155 -20 -27 -3 -68 -7 -90 -9 -337 -38 -856 -21
-1210 39 -76 13 -99 17 -124 20 -14 2 -26 4 -26 5 0 2 -14 5 -60 13 -61 12
-91 18 -146 32 -30 8 -64 16 -75 18 -27 5 -106 27 -124 34 -8 4 -22 7 -30 8
-8 1 -22 4 -30 7 -8 3 -42 13 -75 23 -33 9 -69 20 -80 25 -21 9 -57 22 -65 25
-59 18 -94 30 -190 68 -63 24 -140 56 -170 70 -30 14 -62 27 -70 29 -8 2 -17
5 -20 8 -3 3 -30 16 -60 30 -30 14 -58 29 -61 33 -3 5 -9 8 -13 8 -3 -1 -20 6
-36 14 -17 9 -30 12 -30 8 0 -5 -4 -3 -8 2 -4 6 -41 27 -82 49 -41 21 -82 45
-91 52 -9 8 -18 12 -21 9 -3 -3 -11 1 -18 10 -7 8 -16 15 -21 15 -19 0 -486
302 -509 329 -3 4 -48 39 -100 78 -97 73 -124 96 -290 243 -89 79 -284 272
-376 371 -58 63 -241 284 -294 354 -25 33 -50 66 -57 73 -6 6 -15 21 -18 32
-3 11 -11 20 -16 20 -5 0 -9 8 -10 18 0 9 -3 12 -5 6 -3 -7 13 -51 35 -98 22
-48 41 -90 42 -94 1 -4 15 -29 31 -55 15 -26 28 -49 28 -51 0 -13 167 -294
186 -314 7 -6 16 -21 19 -32 3 -11 11 -20 16 -20 5 0 9 -5 9 -11 0 -9 48 -80
82 -120 7 -8 29 -37 47 -65 19 -27 38 -51 41 -54 3 -3 21 -25 40 -50 37 -48
57 -71 141 -165 29 -33 60 -68 69 -78 8 -11 71 -74 140 -142 170 -168 246
-235 415 -367 44 -34 82 -65 85 -68 3 -3 12 -9 21 -15 59 -37 129 -89 129 -96
0 -5 5 -9 11 -9 7 0 48 -24 93 -54 261 -172 602 -347 886 -455 47 -18 94 -37
105 -41 27 -12 146 -51 165 -55 8 -2 15 -4 15 -5 0 -1 11 -3 24 -6 14 -2 30
-9 38 -15 7 -6 13 -9 13 -6 0 4 18 0 40 -8 22 -8 42 -14 45 -15 3 0 6 0 8 -1
10 -3 38 -10 72 -18 22 -5 87 -21 145 -35 128 -30 128 -30 270 -56 30 -5 73
-12 95 -16 22 -4 43 -7 46 -6 4 1 33 -3 65 -8 61 -9 126 -16 254 -27 94 -8
641 -8 735 0 93 8 172 16 215 22 48 5 144 19 150 20 3 1 30 5 60 9 30 4 98 17
150 28 52 11 104 21 115 23 11 2 29 6 40 8 44 11 161 39 175 42 8 2 15 4 15 5
0 1 7 3 15 5 8 2 26 7 40 10 14 3 30 7 35 8 6 2 16 6 23 11 7 4 16 5 19 2 4
-3 17 1 30 9 13 9 23 13 23 10 0 -3 16 1 35 9 20 9 38 15 40 16 3 0 6 0 8 1 1
0 9 2 17 4 20 4 285 103 335 125 197 88 265 120 365 172 63 32 122 63 130 68
8 5 60 35 115 66 55 32 102 60 105 63 3 3 21 15 40 25 19 11 40 24 45 28 6 5
33 23 60 41 28 17 59 40 69 49 11 10 25 18 32 18 7 0 14 3 16 8 2 4 30 27 63
51 79 58 231 178 274 216 150 132 256 231 340 319 120 124 129 134 191 207 30
35 57 66 60 69 3 3 23 28 45 55 22 28 43 51 47 53 5 2 8 9 8 15 0 7 12 26 28
42 32 36 51 63 152 211 97 144 99 146 107 164 4 8 9 17 13 20 3 3 24 37 45 75
22 39 48 84 57 100 10 17 26 46 34 65 9 19 25 47 36 63 11 15 16 27 12 27 -4
0 0 8 9 18 8 9 16 19 16 22 0 3 23 55 51 115 29 61 62 137 75 170 13 33 30 76
38 95 54 123 58 133 73 195 1 6 8 24 15 40 7 17 13 32 14 35 1 4 20 66 30 100
1 3 5 19 10 35 4 17 10 35 14 40 3 6 6 15 7 20 5 28 15 66 30 120 9 33 18 69
20 80 1 11 3 20 4 20 2 0 4 9 6 20 8 46 26 131 31 145 3 8 7 29 9 45 2 17 7
41 10 55 4 14 8 30 8 35 4 27 20 141 21 145 1 3 5 39 9 80 5 41 10 83 12 93
19 103 26 647 10 812 -4 50 -10 104 -11 120 -5 55 -17 148 -21 169 -7 35 -17
110 -18 136 -1 14 -4 27 -7 30 -4 3 -9 23 -13 45 -6 36 -18 95 -31 150 -7 27
-15 65 -21 94 -3 13 -9 31 -13 40 -5 9 -9 19 -10 24 -4 28 -7 40 -13 57 -3 8
-11 35 -19 60 -7 25 -17 51 -23 59 -6 8 -9 16 -8 18 2 3 1 7 -2 10 -2 3 -2
-12 0 -33z"/>
</g>
</svg>
