<?xml version="1.0" encoding="UTF-8"?>
<svg id="_Слой_2" data-name="Слой 2" xmlns="http://www.w3.org/2000/svg" viewBox="0 0 1002.22 1025.28">
  <defs>
    <style>
      .cls-1 {
        fill: #743d90;
      }

      .cls-1, .cls-2 {
        stroke-width: 0px;
      }

      .cls-2 {
        fill: #37b9c8;
      }
    </style>
  </defs>
  <g id="_Слой_1-2" data-name="Слой 1">
    <path class="cls-1" d="M933.84,286.43C819.19,122.15,616.05,31.47,418.35,72.33c-26.86,5.37-53.28,12.96-78.83,22.92,0,0-23.89-62.12-23.88-62.12,0,0,23.89,62.12,23.89,62.12-25.62,9.78-50.36,21.77-73.85,35.85C145.24,201.97,60.51,325.24,33.21,462.44c-11.56,56.64-13.28,114.99-6.8,172.93C-27.17,492.66,3.37,323.27,94.5,201.31c55.46-75.74,133.59-134.44,221.14-168.17,0,0,23.89,62.12,23.89,62.12h0s-23.89-62.11-23.89-62.11C410.54-3.33,516.71-10.24,615.21,15.1c140.22,34.86,265.59,136.98,318.64,271.34h0Z"/>
    <path class="cls-2" d="M499.82,886.96c-123.98,5.53-247.33-61.43-312.97-166.9-109.65-169.53-60.89-400.36,104.7-514.67,219.47-153.49,527.68-40.94,589.7,221.17,2.08,8.9,4.85,21.96,5.83,30.97,2.08,11.95,2.89,26.97,3.67,39.07,3.26,89.83-28.42,180.8-88.04,247.3,20.79-33.83,36.56-70.27,46.49-108.46,49.1-191.08-66.54-389.11-261.12-430.16-145.55-32.07-300.29,40.92-367.97,173.75-66.68,127.67-44.69,282.33,51.1,389.66,59.23,65.5,140.77,106.62,228.6,118.28h0Z"/>
    <path class="cls-1" d="M73.4,748.27c113.98,163.95,317.19,253.63,514.05,212.89,26.88-5.38,53.31-13,78.89-22.94,0,0,20.78,54.02,20.77,54.01,0,0-20.77-54.01-20.77-54.01,25.63-9.8,50.39-21.79,73.91-35.86,120.24-70.71,205.15-193.82,232.38-330.74,11.47-56.25,13.2-114.23,6.62-171.68,59.56,172.21-.61,374.66-135.75,495.8-45.45,41.56-98.98,74.26-156.39,96.5,0,0-20.77-54.01-20.77-54.01h0s20.77,54.01,20.77,54.01c-93.34,35.88-197.6,43.07-294.69,19-138.66-33.25-263.14-131.83-319.03-262.96h0Z"/>
    <path class="cls-2" d="M430.34,759.68c0-43.24,0-232.49,0-293.14,0-28.77,13.58-56.31,37.46-72.35,12.94-8.69,30.01-15.22,52.35-15.99,101.85-3.49,103.12,135.83,3.62,137.69-24.27.45-47.79.31-60.95.16-5.93-.07-10.76,4.72-10.76,10.66v55.34c0,6.27,5.08,11.35,11.35,11.35h58.91s120.75,5.79,149-113.72c14.12-59.76-6.34-104.67-30.33-131.38-25.85-28.78-58.79-45.98-97.42-48.18-39.4-2.24-95.25,2.3-141.07,51.02-32.5,34.55-49.67,80.76-49.67,128.19v194.47s-1.32,67.78,67.61,92.72c4.81,1.74,9.9-1.73,9.9-6.84Z"/>
  </g>
</svg>